<svg width="24" height="32" xmlns="http://www.w3.org/2000/svg">

 <g style="fill: #6c63ff;">
  <path id="svg_1" d="m11.975,22l0.025,0c3.859,0 7,-3.14 7,-7l0,-6c0,-3.841 -3.127,-6.974 -6.981,-7l-0.06,0c-3.84,0.022 -6.959,3.157 -6.959,7l0,6c0,3.86 3.129,7 6.975,7zm-4.975,-13a5.007,5.007 0 0 1 4.985,-5c2.765,0.006 5.015,2.249 5.015,5l0,6c0,2.757 -2.243,5 -5,5l-0.025,0c-2.789,0 -4.975,-2.196 -4.975,-5l0,-6z"/>
  <path id="svg_2" d="m11,6l2,0l0,6l-2,0l0,-6z"/>
  <path id="svg_3" d="m16.293,22.9041l-4.293,4.293l-4.293,-4.293l-1.414,1.414l5.707,5.707l5.707,-5.707l-1.414,-1.414z"/>
 </g>
</svg>